<?xml version="1.0" encoding="UTF-8"?>
<svg xmlns="http://www.w3.org/2000/svg" xmlns:xlink="http://www.w3.org/1999/xlink" viewBox="0 0 240 240" role="img" aria-label="ChatGPT">
  <defs>
    <mask id="chatgpt-cutout">
      <rect width="240" height="240" fill="#ffffff"/>
      <g transform="translate(15 15) scale(0.0872)">
        <path id="chatgpt-knot" fill="#000000" d="M1107.3 299.1c-197.999 0-373.9 127.3-435.2 315.3L650 743.5v427.9c0 21.4 11 40.4 29.4 51.4l344.5 198.515V833.3h.1v-27.9L1372.7 604c33.715-19.52 70.44-32.857 108.47-39.828L1447.6 450.3C1361 353.5 1237.1 298.5 1107.3 299.1zm0 117.5-.6.6c79.699 0 156.3 27.5 217.6 78.4-2.5 1.2-7.4 4.3-11 6.1L952.8 709.3c-18.4 10.4-29.4 30-29.4 51.4V1248l-155.1-89.4V755.8c-.1-187.099 151.601-338.9 339-339.2z"/>
        <use xlink:href="#chatgpt-knot" transform="rotate(60 1203 1203)"/>
        <use xlink:href="#chatgpt-knot" transform="rotate(120 1203 1203)"/>
        <use xlink:href="#chatgpt-knot" transform="rotate(180 1203 1203)"/>
        <use xlink:href="#chatgpt-knot" transform="rotate(240 1203 1203)"/>
        <use xlink:href="#chatgpt-knot" transform="rotate(300 1203 1203)"/>
      </g>
    </mask>
  </defs>
  <path fill="#000000" mask="url(#chatgpt-cutout)" d="M42.5 0h155C221 0 240 19 240 42.5v155C240 221 221 240 197.5 240h-155C19 240 0 221 0 197.5v-155C0 19 19 0 42.5 0z"/>
</svg>
