<?xml version="1.0" encoding="UTF-8"?>
<svg xmlns="http://www.w3.org/2000/svg" viewBox="0 0 240 234" role="img" aria-label="Microsoft Office Suite">
  <g transform="translate(31 13) scale(4.95)">
    <path d="M20.0842 3.02588L19.8595 3.16179C19.5021 3.37799 19.1654 3.61972 18.8512 3.88385L19.4993 3.42798H25L26 11L21 16L16 19.4754V23.4829C16 26.2819 17.4629 28.8774 19.8574 30.3268L25.1211 33.5129L14 40.0002H11.8551L7.85737 37.5804C5.46286 36.131 4 33.5355 4 30.7365V17.2606C4 14.4607 5.46379 11.8645 7.85952 10.4154L19.8595 3.15687C19.9339 3.11189 20.0088 3.06823 20.0842 3.02588Z" fill="#FFFFFF"/>
    <path d="M32 19V23.4803C32 26.2793 30.5371 28.8748 28.1426 30.3242L16.1426 37.5878C13.6878 39.0737 10.6335 39.1273 8.1355 37.7487L19.8573 44.844C22.4039 46.3855 25.5959 46.3855 28.1426 44.844L40.1426 37.5803C42.5371 36.1309 43.9999 33.5354 43.9999 30.7364V27.5L42.9999 26L32 19Z" fill="#FFFFFF"/>
    <path d="M40.1405 10.4153L28.1405 3.15678C25.6738 1.66471 22.6021 1.61849 20.0979 3.01811L19.8595 3.16231C17.4638 4.61143 16 7.20757 16 10.0075V19.4914L19.8595 17.1568C22.4051 15.6171 25.5949 15.6171 28.1405 17.1568L40.1405 24.4153C42.4613 25.8192 43.9076 28.2994 43.9957 30.9985C43.9986 30.9113 44 30.824 44 30.7364V17.2605C44 14.4606 42.5362 11.8644 40.1405 10.4153Z" fill="#FFFFFF"/>
  </g>
</svg>
